# AST/ASF file generated using VICON BodyLanguage
# -----------------------------------------------
:version 1.10
:name VICON
:units
  mass 1.0
  length 0.45
  angle deg
:documentation
   .ast/.asf automatically generated from VICON data using
   VICON BodyBuilder and BodyLanguage model FoxedUp or BRILLIANT.MOD
:root
   order TX TY TZ RX RY RZ
   axis XYZ
   position 0 0 0  
   orientation 0 0 0 
:bonedata
  begin
     id 1 
     name lhipjoint
     direction 0.584852 -0.759097 0.285867 
     length 2.43633 
     axis 0 0 0  XYZ
  end
  begin
     id 2 
     name lfemur
     direction 0.34202 -0.939693 0  
     length 7.14704  
     axis 0 0 20  XYZ
    dof rx ry rz
    limits (-160.0 20.0)
           (-70.0 70.0)
           (-60.0 70.0)
  end
  begin
     id 3 
     name ltibia
     direction 0.342022 -0.939692 0   
     length 7.68483   
     axis 0 0 20   XYZ
    dof rx
    limits (-10.0 170.0)
  end
  begin
     id 4 
     name lfoot
     direction 0.0999605 -0.274639 0.956337   
     length 2.40452   
     axis -90 7.62852e-016 20   XYZ
    dof rx rz
    limits (-45.0 90.0)
           (-70.0 20.0)
  end
  begin
     id 5 
     name ltoes
     direction 1.53468e-011 -4.21881e-011 1   
     length 1.19837   
     axis -90 7.62852e-016 20   XYZ
    dof rx
    limits (-90.0 20.0)
  end
  begin
     id 6 
     name rhipjoint
     direction -0.569886 -0.769002 0.289597   
     length 2.40495  
     axis 0 0 0  XYZ 
  end
  begin
     id 7 
     name rfemur
     direction -0.34202 -0.939693 0   
     length 7.45086   
     axis 0 0 -20   XYZ
    dof rx ry rz
    limits (-160.0 20.0)
           (-70.0 70.0)
           (-70.0 60.0)
  end
  begin
     id 8 
     name rtibia
     direction -0.34202 -0.939693 0   
     length 7.76831   
     axis 0 0 -20   XYZ
    dof rx
    limits (-10.0 170.0)
 end
 begin
     id 9 
     name rfoot
     direction -0.0798572 -0.219406 0.97236   
     length 2.35911  
     axis -90 -7.62852e-016 -20   XYZ
    dof rx rz
    limits (-45.0 90.0)
           (-20.0 70.0)
  end
  begin
     id 10 
     name rtoes
     direction -1.53469e-011 -4.21728e-011 1   
     length 1.18261   
     axis -90 -7.62852e-016 -20   XYZ
    dof rx
    limits (-90.0 20.0)
  end
  begin
     id 11 
     name lowerback
     direction 0.0242088 0.999437 0.0232389   
     length 2.1561   
     axis 0 0 0   XYZ
    dof rx ry rz
    limits (-20.0 45.0)
           (-30.0 30.0)
           (-30.0 30.0)
  end
  begin
     id 12 
     name upperback
     direction -0.0356893 0.999013 -0.0264323   
     length 2.14431   
     axis 0 0 0   XYZ
    dof rx ry rz
    limits (-20.0 45.0)
           (-30.0 30.0)
           (-30.0 30.0)
  end
  begin
     id 13 
     name thorax
     direction -0.0472163 0.998194 -0.0371284   
     length 2.16169   
     axis 0 0 0   XYZ
    dof rx ry rz
    limits (-20.0 45.0)
           (-30.0 30.0)
           (-30.0 30.0)
  end
  begin
     id 14 
     name lowerneck
     direction 0.00863244 0.999921 0.00911972   
     length 1.58651   
     axis 0 0 0   XYZ
    dof rx ry rz
    limits (-20.0 45.0)
           (-30.0 30.0)
           (-30.0 30.0)
  end
  begin
     id 15 
     name upperneck
     direction 0.149523 0.979068 -0.138086   
     length 1.57486   
     axis 0 0 0   XYZ
    dof rx ry rz
    limits (-20.0 45.0)
           (-30.0 30.0)
           (-30.0 30.0)
  end
  begin
     id 16
     name head
     direction 0.0445219 0.997708 -0.0509576  
     length 1.6019  
     axis 0 0 0   XYZ
    dof rx ry rz
    limits (-20.0 45.0)
           (-30.0 30.0)
           (-30.0 30.0)
  end
  begin
     id 17 
     name lclavicle
     direction 0.911271 0.381667 -0.154644  
     length 3.80848  
     axis 0 0 0   XYZ
    dof ry rz
    limits (-20.0 10.0)
           (0.0 20.0)
  end
  begin
     id 18 
     name lhumerus
     direction 1 -4.49003e-011 2.1308e-027   
     length 5.19069   
     axis 180 -30 -90   XYZ
    dof rx ry rz
    limits (-60.0 90.0)
           (-90.0 90.0)
           (-90.0 90.0)
  end
  begin
     id 19
     name lradius
     direction 1 -4.48914e-011 4.01554e-027   
     length 3.30016   
     axis 180 -30 -90   XYZ
    dof rx
    limits (-10.0 170.0)
  end
  begin
     id 20
     name lwrist
     direction 1 -4.49003e-011 1.1934e-026   
     length 1.65008   
     axis -8.46377e-015 90 90   XYZ
    dof ry
    limits (-180.0 0.0)
 end
  begin
     id 21 
     name lhand
     direction 1 -4.49034e-011 2.38659e-026   
     length 0.707698   
     axis -1.52313e-014 90 90   XYZ
    dof rx rz
    limits (-90.0 90.0)
           (-45.0 45.0)
  end
  begin
     id 22 
     name lfingers
     direction 1 -4.48691e-011 4.77775e-026   
     length 0.570564   
     axis -3.04623e-014 90 90   XYZ
    dof rx
    limits (0.0 90.0)
  end
  begin
     id 23
     name lthumb
     direction 0.707107 -6.34832e-011 0.707107   
     length 0.819219   
     axis -90 45 -1.62303e-014   XYZ
    dof rx rz
    limits (-45.0 45.0)
           (-45.0 45.0)
  end
  begin
     id 24 
     name rclavicle
     direction -0.815579 0.573708 -0.0754329   
     length 3.54371  
     axis 0 0 0   XYZ 
    dof ry rz
    limits (-10.0 20.0)
           (-20.0 0.0)
  end
  begin
     id 25 
     name rhumerus
     direction -1 -4.48956e-011 3.05351e-028  
     length 5.23924   
     axis 180 30 90   XYZ
    dof rx ry rz
    limits (-90.0 60.0)
           (-90.0 90.0)
           (-90.0 90.0)
  end
  begin
     id 26 
     name rradius
     direction -1 -4.49013e-011 3.53849e-027   
     length 3.32953   
     axis 180 30 90   XYZ
    dof rx
    limits (-10.0 170.0)
  end
  begin
     id 27 
     name rwrist
     direction -1 -4.48901e-011 1.19374e-026   
     length 1.66477   
     axis -8.46377e-015 -90 -90   XYZ
    dof ry
    limits (-180.0 0.0)
  end
  begin
     id 28
     name rhand
     direction -1 -4.48877e-011 2.38764e-026   
     length 0.607414   
     axis -1.52313e-014 -90 -90   XYZ
    dof rx rz
    limits (-90.0 90.0)
           (-45.0 45.0)
  end
  begin
     id 29
     name rfingers
     direction -1 -4.48882e-011 4.77521e-026   
     length 0.489712   
     axis -3.04623e-014 -90 -90   XYZ
    dof rx
    limits (0.0 90.0)
  end
  begin
     id 30
     name rthumb
     direction -0.707107 -6.34974e-011 0.707107   
     length 0.703132   
     axis -90 -45 1.62303e-014   XYZ
    dof rx rz
    limits (-45.0 45.0)
           (-45.0 45.0)
  end
:hierarchy
  begin
    root lhipjoint rhipjoint lowerback
    lhipjoint lfemur
    lfemur ltibia
    ltibia lfoot
    lfoot ltoes
    rhipjoint rfemur
    rfemur rtibia
    rtibia rfoot
    rfoot rtoes
    lowerback upperback
    upperback thorax
    thorax lowerneck lclavicle rclavicle
    lowerneck upperneck
    upperneck head
    lclavicle lhumerus
    lhumerus lradius
    lradius lwrist
    lwrist lhand lthumb
    lhand lfingers
    rclavicle rhumerus
    rhumerus rradius
    rradius rwrist
    rwrist rhand rthumb
    rhand rfingers
  end

#!OML:ASF E:\VariousWalksJay\Project 1\Capture day 1\Session 1\Actor2.ASF
:FULLY-SPECIFIED
:DEGREES
43
root 16.0644 17.4367 -8.07458 8.19252 -30.9212 -9.89844
lowerback -9.51128 -0.858791 8.16302
upperback -0.0348575 -2.0757 0.386521
thorax 5.03983 -0.831311 -4.46916
lowerneck -7.13521 -8.08209 -9.66357
upperneck 0.974567 -10.7391 16.0796
head 2.90627 -5.04094 5.86768
rclavicle -2.15681e-014 -5.56597e-015
rhumerus -82.2978 21.3998 -136.989
rradius 68.2015
rwrist 13.9854
rhand -5.30562 -13.4156
rfingers 7.12502
rthumb 20.4997 -42.3533
lclavicle -2.15681e-014 -5.56597e-015
lhumerus -88.5959 -29.9604 151.637
lradius 65.0088
lwrist 2.92403
lhand -11.8846 11.126
lfingers 7.12502
lthumb 14.1682 40.6228
rfemur -8.77528 -3.87961 29.359
rtibia 28.579
rfoot -22.1274 -5.41495
rtoes 2.52721
lfemur -7.07379 7.11899 -13.45
ltibia 27.9041
lfoot -23.4077 1.35139
ltoes -3.33095
44
root 16.0692 17.4362 -8.07408 8.18866 -30.9295 -9.92743
lowerback -9.47395 -0.860902 8.20474
upperback -0.0222162 -2.08026 0.389405
thorax 5.03037 -0.83261 -4.48911
lowerneck -7.16868 -8.06914 -9.64885
upperneck 0.867609 -10.7094 16.1013
head 2.87731 -5.02737 5.87482
rclavicle 2.4202e-014 -3.18055e-014
rhumerus -82.232 21.4226 -136.986
rradius 68.1915
rwrist 13.9645
rhand -5.33924 -13.3288
rfingers 7.12502
rthumb 20.4674 -42.27
lclavicle 2.4202e-014 -3.18055e-014
lhumerus -88.5908 -29.9994 151.582
lradius 65.0428
lwrist 2.91163
lhand -12.0971 11.2381
lfingers 7.12502
lthumb 13.9635 40.7492
rfemur -8.75905 -3.87669 29.3659
rtibia 28.5747
rfoot -22.1211 -5.40592
rtoes 2.49471
lfemur -7.07128 7.11855 -13.4402
ltibia 27.9254
lfoot -23.4148 1.35989
ltoes -3.31497
45
root 16.0739 17.4358 -8.07374 8.18657 -30.9387 -9.95716
lowerback -9.43355 -0.866105 8.23834
upperback -0.0136226 -2.08795 0.400059
thorax 5.015 -0.836145 -4.49651
lowerneck -7.18929 -8.05237 -9.64577
upperneck 0.764799 -10.6745 16.1205
head 2.84722 -5.01177 5.88395
rclavicle 4.77456e-014 2.06736e-014
rhumerus -82.1813 21.4433 -136.973
rradius 68.1857
rwrist 13.9459
rhand -5.3728 -13.2423
rfingers 7.12502
rthumb 20.4352 -42.187
lclavicle 4.77456e-014 2.06736e-014
lhumerus -88.5622 -30.0211 151.514
lradius 65.0756
lwrist 2.89278
lhand -12.3182 11.3513
lfingers 7.12502
lthumb 13.7503 40.8769
rfemur -8.74386 -3.86981 29.3742
rtibia 28.5696
rfoot -22.115 -5.40168
rtoes 2.45607
lfemur -7.07187 7.10813 -13.4306
ltibia 27.9503
lfoot -23.424 1.37718
ltoes -3.29884
46
root 16.0786 17.4354 -8.0735 8.18434 -30.9497 -9.98248
lowerback -9.38981 -0.87315 8.25726
upperback -0.00870367 -2.09633 0.417572
thorax 4.99448 -0.840814 -4.4883
lowerneck -7.20406 -8.03521 -9.6439
upperneck 0.664605 -10.6389 16.1287
head 2.81617 -4.9962 5.89011
rclavicle 1.59028e-015 -8.74653e-015
rhumerus -82.1394 21.4632 -136.948
rradius 68.1815
rwrist 13.9324
rhand -5.40417 -13.1547
rfingers 7.12502
rthumb 20.405 -42.1026
lclavicle 1.59028e-015 -8.74653e-015
lhumerus -88.5132 -30.0308 151.442
lradius 65.102
lwrist 2.86696
lhand -12.5404 11.4622
lfingers 7.12502
lthumb 13.5362 41.0022
rfemur -8.73081 -3.85981 29.3788
rtibia 28.5651
rfoot -22.1096 -5.39995
rtoes 2.40899
lfemur -7.07471 7.0898 -13.4263
ltibia 27.9763
lfoot -23.4346 1.40229
ltoes -3.28379
47
root 16.0832 17.4349 -8.0735 8.18611 -30.9629 -10.0132
lowerback -9.33969 -0.88256 8.26923
upperback -0.00928475 -2.10673 0.445118
thorax 4.96487 -0.847365 -4.46553
lowerneck -7.20379 -8.01447 -9.65334
upperneck 0.569024 -10.5987 16.1333
head 2.78373 -4.97894 5.89786
rclavicle -6.91771e-014 8.74653e-015
rhumerus -82.1161 21.4828 -136.915
rradius 68.1803
rwrist 13.9248
rhand -5.43473 -13.0678
rfingers 7.12502
rthumb 20.3757 -42.0188
lclavicle -6.91771e-014 8.74653e-015
lhumerus -88.448 -30.0299 151.375
lradius 65.118
lwrist 2.84009
lhand -12.7717 11.573
lfingers 7.12502
lthumb 13.3132 41.1278
rfemur -8.71988 -3.84455 29.3896
rtibia 28.5621
rfoot -22.1049 -5.40239
rtoes 2.35989
lfemur -7.07863 7.06834 -13.4168
ltibia 28.0025
lfoot -23.4451 1.43129
ltoes -3.26427
48
root 16.0878 17.4346 -8.07371 8.18863 -30.9789 -10.0404
lowerback -9.29063 -0.888416 8.27513
upperback -0.00938637 -2.11174 0.470624
thorax 4.93722 -0.851271 -4.44089
lowerneck -7.20148 -7.99619 -9.6522
upperneck 0.475355 -10.5627 16.1313
head 2.75109 -4.96393 5.90155
rclavicle -6.72016e-014 -2.46493e-014
rhumerus -82.0816 21.4954 -136.872
rradius 68.1758
rwrist 13.926
rhand -5.46349 -12.9792
rfingers 7.12502
rthumb 20.348 -41.9332
lclavicle -6.72016e-014 -2.46493e-014
lhumerus -88.379 -30.0325 151.306
lradius 65.1277
lwrist 2.81279
lhand -13.0023 11.6794
lfingers 7.12502
lthumb 13.091 41.2486
rfemur -8.71292 -3.82569 29.3981
rtibia 28.5615
rfoot -22.0991 -5.4061
rtoes 2.31158
lfemur -7.08413 7.03387 -13.4125
ltibia 28.0278
lfoot -23.4564 1.47579
ltoes -3.24682
49
root 16.0923 17.4342 -8.07399 8.19328 -30.9976 -10.0701
lowerback -9.24195 -0.888121 8.28382
upperback -0.00735302 -2.10878 0.492438
thorax 4.9129 -0.85092 -4.42078
lowerneck -7.20188 -7.98293 -9.63689
upperneck 0.387053 -10.5351 16.1247
head 2.72049 -4.95284 5.90062
rclavicle 3.32467e-014 2.46493e-014
rhumerus -82.029 21.4992 -136.819
rradius 68.1656
rwrist 13.9323
rhand -5.49278 -12.889
rfingers 7.12502
rthumb 20.3199 -41.8459
lclavicle 3.32467e-014 2.46493e-014
lhumerus -88.327 -30.053 151.255
lradius 65.1299
lwrist 2.79597
lhand -13.2302 11.7842
lfingers 7.12502
lthumb 12.8713 41.3673
rfemur -8.7084 -3.80515 29.4089
rtibia 28.5637
rfoot -22.0922 -5.41051
rtoes 2.25531
lfemur -7.09102 7.0242 -13.4032
ltibia 28.0539
lfoot -23.4654 1.50025
ltoes -3.23386
50
root 16.097 17.4337 -8.07426 8.19748 -31.0186 -10.0984
lowerback -9.2013 -0.880263 8.29919
upperback 0.00258826 -2.09706 0.503273
thorax 4.90205 -0.845096 -4.41536
lowerneck -7.20889 -7.97519 -9.6035
upperneck 0.304591 -10.5171 16.1198
head 2.69312 -4.94603 5.89613
rclavicle 3.76076e-014 -2.38542e-015
rhumerus -81.9461 21.4943 -136.759
rradius 68.1504
rwrist 13.9387
rhand -5.52151 -12.7978
rfingers 7.12502
rthumb 20.2923 -41.7578
lclavicle 3.76076e-014 -2.38542e-015
lhumerus -88.3053 -30.1081 151.225
lradius 65.1349
lwrist 2.81141
lhand -13.4343 11.8875
lfingers 7.12502
lthumb 12.6745 41.4829
rfemur -8.70617 -3.78228 29.4181
rtibia 28.57
rfoot -22.086 -5.41389
rtoes 2.20779
lfemur -7.09659 6.99891 -13.3984
ltibia 28.0792
lfoot -23.4767 1.54456
ltoes -3.22444
51
root 16.1017 17.4332 -8.07447 8.20057 -31.0401 -10.1244
lowerback -9.16871 -0.863916 8.32514
upperback 0.0208258 -2.07558 0.499506
thorax 4.90497 -0.833139 -4.43052
lowerneck -7.22915 -7.97511 -9.5478
upperneck 0.232842 -10.5122 16.117
head 2.67174 -4.94481 5.88696
rclavicle -2.13197e-014 -1.74931e-014
rhumerus -81.8285 21.4777 -136.693
rradius 68.131
rwrist 13.9461
rhand -5.55219 -12.7057
rfingers 7.12502
rthumb 20.2628 -41.6687
lclavicle -2.13197e-014 -1.74931e-014
lhumerus -88.3199 -30.1962 151.213
lradius 65.1406
lwrist 2.84171
lhand -13.6202 11.985
lfingers 7.12502
lthumb 12.4953 41.5914
rfemur -8.70657 -3.75718 29.4252
rtibia 28.5814
rfoot -22.0799 -5.42025
rtoes 2.15195
lfemur -7.10231 6.98479 -13.3952
ltibia 28.1038
lfoot -23.4869 1.58224
ltoes -3.22132
52
root 16.1064 17.4325 -8.07431 8.19752 -31.0639 -10.1467
lowerback -9.13839 -0.845844 8.35713
upperback 0.041767 -2.05237 0.488135
thorax 4.91182 -0.819818 -4.45703
lowerneck -7.25082 -7.97473 -9.4935
upperneck 0.181567 -10.5096 16.1216
head 2.65745 -4.94399 5.87974
rclavicle 4.28257e-014 -3.73715e-014
rhumerus -81.7074 21.4577 -136.629
rradius 68.111
rwrist 13.9491
rhand -5.58432 -12.6148
rfingers 7.12502
rthumb 20.2319 -41.5811
lclavicle 4.28257e-014 -3.73715e-014
lhumerus -88.3474 -30.2905 151.208
lradius 65.15
lwrist 2.89897
lhand -13.792 12.0817
lfingers 7.12502
lthumb 12.3297 41.6982
rfemur -8.70437 -3.73007 29.4272
rtibia 28.5983
rfoot -22.0769 -5.42839
rtoes 2.09282
lfemur -7.10106 6.97452 -13.3968
ltibia 28.1259
lfoot -23.4981 1.62219
ltoes -3.22859
53
root 16.1112 17.4318 -8.07391 8.18876 -31.0839 -10.1606
lowerback -9.11611 -0.829625 8.39024
upperback 0.065268 -2.03227 0.469635
thorax 4.92523 -0.80752 -4.49239
lowerneck -7.27035 -7.97362 -9.43956
upperneck 0.145292 -10.5083 16.1312
head 2.64771 -4.94339 5.87392
rclavicle -1.74558e-014 7.95139e-015
rhumerus -81.5861 21.4401 -136.571
rradius 68.0906
rwrist 13.9445
rhand -5.61675 -12.5242
rfingers 7.12502
rthumb 20.2007 -41.4938
lclavicle -1.74558e-014 7.95139e-015
lhumerus -88.3731 -30.3813 151.194
lradius 65.1594
lwrist 2.97412
lhand -13.9521 12.1754
lfingers 7.12502
lthumb 12.1753 41.8011
rfemur -8.70272 -3.7015 29.4215
rtibia 28.6211
rfoot -22.0786 -5.44115
rtoes 2.03591
lfemur -7.09735 6.95281 -13.4081
ltibia 28.1457
lfoot -23.511 1.67473
ltoes -3.24601
54
root 16.116 17.431 -8.07346 8.17519 -31.1005 -10.169
lowerback -9.09665 -0.819415 8.42144
upperback 0.0878611 -2.02014 0.450399
thorax 4.93823 -0.799224 -4.52851
lowerneck -7.28354 -7.96723 -9.39833
upperneck 0.128907 -10.5018 16.1471
head 2.64315 -4.93982 5.87245
rclavicle -6.65183e-014 -2.38542e-015
rhumerus -81.4838 21.4292 -136.52
rradius 68.0755
rwrist 13.9328
rhand -5.64984 -12.4365
rfingers 7.12502
rthumb 20.1689 -41.4095
lclavicle -6.65183e-014 -2.38542e-015
lhumerus -88.3736 -30.4534 151.156
lradius 65.1663
lwrist 3.0773
lhand -14.1067 12.2612
lfingers 7.12502
lthumb 12.0262 41.8957
rfemur -8.70191 -3.66487 29.412
rtibia 28.6502
rfoot -22.0865 -5.46646
rtoes 1.97207
lfemur -7.09108 6.92209 -13.4255
ltibia 28.1621
lfoot -23.5226 1.73643
ltoes -3.26912
55
root 16.1207 17.4301 -8.07287 8.15755 -31.113 -10.1735
lowerback -9.07824 -0.814276 8.45001
upperback 0.107947 -2.01448 0.432031
thorax 4.94838 -0.794392 -4.56302
lowerneck -7.29216 -7.95639 -9.37062
upperneck 0.137339 -10.4914 16.1655
head 2.64548 -4.93375 5.87411
rclavicle -4.85283e-014 1.43125e-014
rhumerus -81.399 21.4218 -136.475
rradius 68.0622
rwrist 13.9156
rhand -5.68307 -12.3507
rfingers 7.12502
rthumb 20.137 -41.3271
lclavicle -4.85283e-014 1.43125e-014
lhumerus -88.353 -30.5023 151.101
lradius 65.1684
lwrist 3.16921
lhand -14.263 12.3496
lfingers 7.12502
lthumb 11.8755 41.9929
rfemur -8.70118 -3.6238 29.3997
rtibia 28.6855
rfoot -22.101 -5.50186
rtoes 1.90076
lfemur -7.08199 6.88912 -13.4465
ltibia 28.1754
lfoot -23.5343 1.79931
ltoes -3.29518
56
root 16.1253 17.4292 -8.07224 8.13573 -31.1202 -10.1687
lowerback -9.06082 -0.816034 8.4667
upperback 0.122999 -2.01672 0.416543
thorax 4.95312 -0.794182 -4.58873
lowerneck -7.29248 -7.94086 -9.35591
upperneck 0.16628 -10.4762 16.1823
head 2.65239 -4.9251 5.87778
rclavicle -2.75441e-014 -1.59028e-014
rhumerus -81.3401 21.4179 -136.437
rradius 68.0546
rwrist 13.8945
rhand -5.7156 -12.2681
rfingers 7.12502
rthumb 20.1057 -41.2478
lclavicle -2.75441e-014 -1.59028e-014
lhumerus -88.3058 -30.5224 151.028
lradius 65.165
lwrist 3.23679
lhand -14.4255 12.4422
lfingers 7.12502
lthumb 11.7188 42.0944
rfemur -8.70338 -3.57995 29.3803
rtibia 28.7267
rfoot -22.1223 -5.54813
rtoes 1.81768
lfemur -7.07427 6.85698 -13.475
ltibia 28.1871
lfoot -23.5447 1.85702
ltoes -3.32325
57
root 16.1298 17.4283 -8.07171 8.11331 -31.1213 -10.1602
lowerback -9.03956 -0.82411 8.47109
upperback 0.130913 -2.02569 0.408152
thorax 4.94781 -0.79837 -4.6006
lowerneck -7.28706 -7.92237 -9.35155
upperneck 0.215296 -10.4582 16.1916
head 2.66391 -4.91485 5.88095
rclavicle -1.22277e-013 7.15625e-015
rhumerus -81.3062 21.4155 -136.402
rradius 68.0488
rwrist 13.8716
rhand -5.74736 -12.1865
rfingers 7.12502
rthumb 20.0752 -41.1693
lclavicle -1.22277e-013 7.15625e-015
lhumerus -88.2451 -30.522 150.961
lradius 65.1546
lwrist 3.2793
lhand -14.5994 12.5412
lfingers 7.12502
lthumb 11.5511 42.2029
rfemur -8.70937 -3.53347 29.3597
rtibia 28.7736
rfoot -22.1496 -5.60479
rtoes 1.72133
lfemur -7.06953 6.83007 -13.5046
ltibia 28.1988
lfoot -23.5542 1.90323
ltoes -3.34262
